<mxfile host="www.draw.io" modified="2019-10-21T20:40:09.685Z" agent="Mozilla/5.0 (Windows NT 10.0; Win64; x64) AppleWebKit/537.36 (KHTML, like Gecko) Chrome/77.0.3865.120 Safari/537.36" etag="TJl_xTVY6SVVbpQWfw6Z" version="12.1.3" type="github" pages="1">
  <diagram id="jc50YsIZn7Nlkq18A9m5" name="Page-1">
    <mxGraphModel dx="1229" dy="684" grid="1" gridSize="10" guides="1" tooltips="1" connect="1" arrows="1" fold="1" page="1" pageScale="1" pageWidth="827" pageHeight="1169" math="0" shadow="0">
      <root>
        <mxCell id="0"/>
        <mxCell id="1" parent="0"/>
        <mxCell id="FL1hoqeLFUw1bEhvyGXI-4" value="" style="shape=ext;rounded=1;html=1;whiteSpace=wrap;strokeWidth=3;" vertex="1" parent="1">
          <mxGeometry x="350" y="10" width="120" height="70" as="geometry"/>
        </mxCell>
        <mxCell id="FL1hoqeLFUw1bEhvyGXI-5" value="" style="shape=ext;rounded=1;html=1;whiteSpace=wrap;strokeWidth=3;" vertex="1" parent="1">
          <mxGeometry x="500" y="130" width="120" height="70" as="geometry"/>
        </mxCell>
        <mxCell id="FL1hoqeLFUw1bEhvyGXI-6" value="" style="shape=ext;rounded=1;html=1;whiteSpace=wrap;strokeWidth=3;" vertex="1" parent="1">
          <mxGeometry x="160" y="130" width="120" height="70" as="geometry"/>
        </mxCell>
        <mxCell id="FL1hoqeLFUw1bEhvyGXI-12" value="" style="line;strokeWidth=1;fillColor=none;align=left;verticalAlign=middle;spacingTop=-1;spacingLeft=3;spacingRight=3;rotatable=0;labelPosition=right;points=[];portConstraint=eastwest;fontSize=12;" vertex="1" parent="1">
          <mxGeometry x="230" y="110" width="330" height="8" as="geometry"/>
        </mxCell>
        <mxCell id="FL1hoqeLFUw1bEhvyGXI-13" value="" style="line;strokeWidth=2;direction=south;html=1;" vertex="1" parent="1">
          <mxGeometry x="225" y="114" width="10" height="16" as="geometry"/>
        </mxCell>
        <mxCell id="FL1hoqeLFUw1bEhvyGXI-14" value="" style="line;strokeWidth=2;direction=south;html=1;" vertex="1" parent="1">
          <mxGeometry x="555" y="114" width="10" height="16" as="geometry"/>
        </mxCell>
        <mxCell id="FL1hoqeLFUw1bEhvyGXI-16" value="" style="line;strokeWidth=2;direction=south;html=1;" vertex="1" parent="1">
          <mxGeometry x="405" y="80" width="10" height="40" as="geometry"/>
        </mxCell>
      </root>
    </mxGraphModel>
  </diagram>
</mxfile>
